<svg width="80" height="80" viewBox="0 0 80 80" fill="none" xmlns="http://www.w3.org/2000/svg">
<circle cx="40" cy="40" r="40" fill="#FF3232"/>
<path d="M37.625 37.8125C37.625 37.5364 37.4011 37.3125 37.125 37.3125C36.8489 37.3125 36.625 37.5364 36.625 37.8125H37.625ZM36.625 47.9375C36.625 48.2136 36.8489 48.4375 37.125 48.4375C37.4011 48.4375 37.625 48.2136 37.625 47.9375H36.625ZM44.375 37.8125C44.375 37.5364 44.1511 37.3125 43.875 37.3125C43.5989 37.3125 43.375 37.5364 43.375 37.8125H44.375ZM43.375 47.9375C43.375 48.2136 43.5989 48.4375 43.875 48.4375C44.1511 48.4375 44.375 48.2136 44.375 47.9375H43.375ZM51.125 31.0625C51.125 30.7864 50.9011 30.5625 50.625 30.5625C50.3489 30.5625 50.125 30.7864 50.125 31.0625H51.125ZM30.875 31.0625C30.875 30.7864 30.6511 30.5625 30.375 30.5625C30.0989 30.5625 29.875 30.7864 29.875 31.0625H30.875ZM27 30.5625C26.7239 30.5625 26.5 30.7864 26.5 31.0625C26.5 31.3386 26.7239 31.5625 27 31.5625V30.5625ZM54 31.5625C54.2761 31.5625 54.5 31.3386 54.5 31.0625C54.5 30.7864 54.2761 30.5625 54 30.5625V31.5625ZM45.0625 31.0625C45.0625 31.3386 45.2864 31.5625 45.5625 31.5625C45.8386 31.5625 46.0625 31.3386 46.0625 31.0625H45.0625ZM34.9375 31.0625C34.9375 31.3386 35.1614 31.5625 35.4375 31.5625C35.7136 31.5625 35.9375 31.3386 35.9375 31.0625H34.9375ZM36.625 37.8125V47.9375H37.625V37.8125H36.625ZM43.375 37.8125V47.9375H44.375V37.8125H43.375ZM50.125 31.0625V51.3125H51.125V31.0625H50.125ZM47.25 54.1875H33.75V55.1875H47.25V54.1875ZM30.875 51.3125V31.0625H29.875V51.3125H30.875ZM33.75 54.1875C32.1622 54.1875 30.875 52.9003 30.875 51.3125H29.875C29.875 53.4526 31.6099 55.1875 33.75 55.1875V54.1875ZM50.125 51.3125C50.125 52.9003 48.8378 54.1875 47.25 54.1875V55.1875C49.3901 55.1875 51.125 53.4526 51.125 51.3125H50.125ZM27 31.5625H54V30.5625H27V31.5625ZM46.0625 31.0625V29.375H45.0625V31.0625H46.0625ZM42.1875 25.5H38.8125V26.5H42.1875V25.5ZM34.9375 29.375V31.0625H35.9375V29.375H34.9375ZM38.8125 25.5C36.6724 25.5 34.9375 27.2349 34.9375 29.375H35.9375C35.9375 27.7872 37.2247 26.5 38.8125 26.5V25.5ZM46.0625 29.375C46.0625 27.2349 44.3276 25.5 42.1875 25.5V26.5C43.7753 26.5 45.0625 27.7872 45.0625 29.375H46.0625Z" fill="white"/>
</svg>
