<svg width="30" height="39" viewBox="0 0 32 32" fill="none" xmlns="http://www.w3.org/2000/svg">
    <path
        d="M21.1039 16.6211C20.9659 11.5818 17.0397 7.69963 11.943 7.56355C10.4286 7.52912 10.4286 5.24746 11.943 5.28214C18.3148 5.41873 23.2738 10.3223 23.4116 16.6209C23.4453 18.1193 21.1386 18.0849 21.1037 16.6209L21.1039 16.6211ZM16.7989 17.1654C16.6957 14.0321 14.2493 11.6152 11.082 11.5465C9.60062 11.4786 9.60062 9.19736 11.082 9.23064C15.525 9.36723 18.969 12.7726 19.1068 17.1653C19.1405 18.6635 16.8337 18.6302 16.7989 17.1654ZM14.4574 17.4041C14.3612 18.0825 14.033 18.7075 13.5277 19.1746C13.1834 19.5489 11.2894 21.3882 11.082 21.5925C11.082 21.6016 11.0783 21.6104 11.0718 21.6168C11.0653 21.6233 11.0565 21.6269 11.0473 21.6269C11.038 21.6269 11.0292 21.6233 11.0227 21.6168C11.0162 21.6104 11.0125 21.6016 11.0125 21.5925C10.2207 20.8095 9.39434 20.0264 8.60152 19.2089L8.39511 19.0046C7.95192 18.4837 7.67614 17.8431 7.60332 17.1654C7.56212 16.8365 7.57384 16.5032 7.63804 16.1779C7.77578 15.3917 8.19072 14.6796 8.80882 14.1687C9.35863 13.7227 10.0304 13.45 10.7377 13.3856C11.0595 13.362 11.3829 13.3736 11.7021 13.42C12.5128 13.5807 13.2427 14.0137 13.7688 14.6461C14.0732 15.0317 14.2919 15.4767 14.4106 15.952C14.5293 16.4273 14.5452 16.9223 14.4574 17.4041ZM25.9258 4.29378C21.069 -0.473337 12.3558 -1.39296 6.53554 2.14896C2.23061 4.80442 0.542723 8.9252 0.026901 13.8622C-0.455353 23.0906 5.60588 32.5226 13.4243 37.9026C16.2827 39.8774 16.5586 37.8683 15.9038 37.2218C14.5603 35.8257 11.4954 32.1483 11.0817 30.82C10.2205 27.9933 11.3228 26.1552 14.2848 26.1885C16.0757 26.2229 17.8666 26.154 19.6228 25.814C24.3405 24.8944 27.9224 22.409 29.3352 17.6417C30.8855 12.5683 29.7142 8.03988 25.926 4.29365L25.9258 4.29378Z"
        fill="#1879C6" />
    <path
        d="M11.0811 15.5314C10.914 15.5309 10.7484 15.563 10.5938 15.6261C10.4392 15.6891 10.2987 15.7818 10.1804 15.8988C10.062 16.0159 9.96811 16.1549 9.90407 16.308C9.84002 16.4611 9.80709 16.6252 9.80716 16.7909C9.80716 17.126 9.94138 17.4474 10.1803 17.6843C10.4192 17.9212 10.7433 18.0543 11.0811 18.0543C11.419 18.0543 11.7431 17.9212 11.982 17.6843C12.2209 17.4474 12.3551 17.126 12.3551 16.7909C12.3554 16.6252 12.3225 16.461 12.2585 16.3078C12.1945 16.1546 12.1006 16.0155 11.9822 15.8985C11.8638 15.7814 11.7233 15.6887 11.5686 15.6257C11.4139 15.5628 11.2483 15.5307 11.0811 15.5314Z"
        fill="#1878C6" />
</svg>