<svg width="80" height="80" viewBox="0 0 80 80" fill="none" xmlns="http://www.w3.org/2000/svg">
<rect width="80" height="80" fill="white" fill-opacity="0.01"/>
<path fill-rule="evenodd" clip-rule="evenodd" d="M44.3669 17.8099L68.8969 61.7099C69.1797 62.2171 69.3251 62.7895 69.3187 63.3702C69.3122 63.951 69.1541 64.52 68.8601 65.0208C68.566 65.5217 68.1462 65.937 67.6423 66.2257C67.1383 66.5143 66.5677 66.6663 65.9869 66.6665H14.0135C13.4323 66.6666 12.8611 66.5147 12.3567 66.2259C11.8522 65.9371 11.4321 65.5213 11.138 65.02C10.8438 64.5186 10.6859 63.9491 10.6799 63.3678C10.6738 62.7866 10.8199 62.2139 11.1035 61.7065L35.6369 17.8099C36.071 17.034 36.7042 16.3879 37.4712 15.9382C38.2381 15.4885 39.1111 15.2515 40.0002 15.2515C40.8893 15.2515 41.7623 15.4885 42.5292 15.9382C43.2962 16.3879 43.9294 17.034 44.3635 17.8099H44.3669ZM40.0002 28.3332C39.4809 28.3332 38.9677 28.4443 38.495 28.6592C38.0222 28.8741 37.601 29.1878 37.2596 29.579C36.9182 29.9703 36.6646 30.4302 36.5158 30.9277C36.367 31.4251 36.3264 31.9487 36.3969 32.4632L38.1069 45.0165C38.1679 45.4755 38.3935 45.8966 38.7418 46.2016C39.0901 46.5066 39.5373 46.6748 40.0002 46.6748C40.4632 46.6748 40.9104 46.5066 41.2586 46.2016C41.6069 45.8966 41.8325 45.4755 41.8935 45.0165L43.6035 32.4632C43.674 31.9487 43.6334 31.4251 43.4846 30.9277C43.3358 30.4302 43.0822 29.9703 42.7408 29.579C42.3994 29.1878 41.9782 28.8741 41.5055 28.6592C41.0327 28.4443 40.5195 28.3332 40.0002 28.3332ZM40.0002 57.0999C40.9948 57.0999 41.9486 56.7048 42.6519 56.0015C43.3551 55.2983 43.7502 54.3444 43.7502 53.3499C43.7502 52.3553 43.3551 51.4015 42.6519 50.6982C41.9486 49.995 40.9948 49.5999 40.0002 49.5999C39.0056 49.5999 38.0518 49.995 37.3486 50.6982C36.6453 51.4015 36.2502 52.3553 36.2502 53.3499C36.2502 54.3444 36.6453 55.2983 37.3486 56.0015C38.0518 56.7048 39.0056 57.0999 40.0002 57.0999Z" fill="#FFAB00"/>
</svg>