<svg width="48" height="48" viewBox="0 0 48 48" fill="none" xmlns="http://www.w3.org/2000/svg">
<path fill-rule="evenodd" clip-rule="evenodd" d="M4.8999 43.3L7.5999 33.5C5.8999 30.6 4.9999 27.3 4.9999 24C4.9999 13.5 13.4999 5 23.9999 5C29.0999 5 33.7999 7 37.3999 10.6C40.9999 14.2 42.9999 18.9 42.9999 24C42.9999 34.5 34.4999 43 23.9999 43C20.7999 43 17.6999 42.2 14.8999 40.7L4.8999 43.3Z" fill="white"/>
<path fill-rule="evenodd" clip-rule="evenodd" d="M4.89982 43.8C4.79982 43.8 4.59982 43.7 4.49982 43.7C4.39982 43.6 4.29982 43.4 4.39982 43.2L6.99982 33.5C5.39982 30.6 4.49982 27.3 4.49982 23.9C4.49982 13.2 13.2998 4.5 23.9998 4.5C29.1998 4.5 34.0998 6.5 37.7998 10.2C41.4998 13.9 43.4998 18.8 43.4998 24C43.4998 34.7 34.7998 43.5 23.9998 43.5C20.7998 43.5 17.6998 42.7 14.8998 41.2L4.99982 43.8H4.89982Z" fill="white"/>
<path fill-rule="evenodd" clip-rule="evenodd" d="M23.9998 5C29.0998 5 33.7998 7 37.3998 10.6C40.9998 14.2 42.9998 18.9 42.9998 24C42.9998 34.5 34.4998 43 23.9998 43C20.7998 43 17.6998 42.2 14.8998 40.7L4.8998 43.3L7.5998 33.5C5.8998 30.6 4.9998 27.3 4.9998 24C4.9998 13.5 13.4998 5 23.9998 5ZM23.9998 4C12.9998 4 3.9998 13 3.9998 24C3.9998 27.4 4.7998 30.7 6.4998 33.6L3.8998 43C3.7998 43.3 3.8998 43.7 4.1998 44C4.3998 44.2 4.5998 44.3 4.8998 44.3C4.9998 44.3 5.0998 44.3 5.1998 44.3L14.8998 41.8C17.6998 43.3 20.8998 44 24.0998 44C35.0998 44 44.0998 35 44.0998 24C44.0998 18.7 41.9998 13.6 38.2998 9.9C34.3998 6.1 29.3998 4 23.9998 4Z" fill="#CFD8DC"/>
<path fill-rule="evenodd" clip-rule="evenodd" d="M35.2002 12.8002C32.2002 9.8002 28.3002 8.2002 24.0002 8.2002C15.3002 8.2002 8.2002 15.3002 8.2002 24.0002C8.2002 27.0002 9.0002 29.9002 10.6002 32.4002L11.0002 33.0002L9.4002 38.8002L15.4002 37.2002L16.0002 37.5002C18.4002 38.9002 21.2002 39.7002 24.0002 39.7002C32.7002 39.7002 39.8002 32.6002 39.8002 23.9002C39.8002 19.8002 38.2002 15.8002 35.2002 12.8002Z" fill="#40C351"/>
<path fill-rule="evenodd" clip-rule="evenodd" d="M19.2998 16.0002C18.8998 15.2002 18.5998 15.2002 18.1998 15.2002C17.8998 15.2002 17.5998 15.2002 17.2998 15.2002C16.9998 15.2002 16.4998 15.3002 15.9998 15.8002C15.5998 16.3002 14.2998 17.4002 14.2998 19.8002C14.2998 22.2002 15.9998 24.4002 16.1998 24.7002C16.3998 25.0002 19.4998 30.0002 24.2998 31.9002C28.2998 33.5002 29.0998 33.2002 29.9998 33.1002C30.8998 33.0002 32.7998 32.0002 33.1998 30.8002C33.5998 29.7002 33.5998 28.7002 33.4998 28.5002C33.3998 28.3002 33.0998 28.2002 32.5998 27.9002C32.0998 27.6002 29.7998 26.5002 29.3998 26.4002C28.9998 26.2002 28.5998 26.2002 28.2998 26.6002C27.9998 27.1002 27.0998 28.1002 26.7998 28.5002C26.4998 28.8002 26.1998 28.9002 25.7998 28.6002C25.2998 28.4002 23.7998 27.9002 21.9998 26.2002C20.5998 24.9002 19.5998 23.4002 19.3998 22.9002C19.0998 22.4002 19.3998 22.2002 19.5998 21.9002C19.7998 21.7002 20.0998 21.3002 20.2998 21.1002C20.4998 20.8002 20.5998 20.6002 20.7998 20.3002C20.9998 20.0002 20.8998 19.7002 20.7998 19.5002C20.5998 19.3002 19.6998 17.0002 19.2998 16.0002Z" fill="white"/>
</svg>
