<svg width="69" height="64" viewBox="0 0 69 64" fill="none" xmlns="http://www.w3.org/2000/svg">
<path d="M39.5107 29.7258C39.3968 25.5643 36.1545 22.3584 31.9456 22.246C30.695 22.2176 30.695 20.3334 31.9456 20.362C37.2075 20.4748 41.3026 24.5242 41.4165 29.7257C41.4443 30.963 39.5395 30.9347 39.5107 29.7258ZM35.9557 30.1753C35.8704 27.5878 33.8502 25.5919 31.2346 25.5352C30.0113 25.4791 30.0113 23.5952 31.2346 23.6227C34.9037 23.7355 37.7477 26.5477 37.8615 30.1752C37.8894 31.4124 35.9844 31.3849 35.9557 30.1753ZM34.022 30.3724C33.9426 30.9326 33.6716 31.4488 33.2543 31.8345C32.97 32.1436 31.4059 33.6625 31.2346 33.8312C31.2346 33.8388 31.2316 33.846 31.2262 33.8513C31.2208 33.8567 31.2135 33.8597 31.2059 33.8597C31.1983 33.8597 31.191 33.8567 31.1856 33.8513C31.1803 33.846 31.1772 33.8388 31.1772 33.8312C30.5234 33.1846 29.8409 32.5379 29.1862 31.8629L29.0157 31.6941C28.6498 31.264 28.422 30.735 28.3619 30.1753C28.3279 29.9037 28.3375 29.6284 28.3905 29.3598C28.5043 28.7106 28.847 28.1225 29.3574 27.7006C29.8114 27.3323 30.3662 27.1071 30.9503 27.0539C31.216 27.0344 31.4831 27.044 31.7467 27.0824C32.4161 27.215 33.019 27.5726 33.4534 28.0949C33.7048 28.4133 33.8854 28.7808 33.9834 29.1733C34.0814 29.5658 34.0945 29.9745 34.022 30.3724ZM43.4927 19.5458C39.4819 15.6091 32.2865 14.8497 27.4801 17.7746C23.9251 19.9675 22.5312 23.3705 22.1052 27.4475C21.707 35.0684 26.7124 42.8573 33.1689 47.3002C35.5294 48.931 35.7572 47.2719 35.2164 46.738C34.107 45.5851 31.576 42.5482 31.2344 41.4514C30.5231 39.117 31.4335 37.5991 33.8795 37.6266C35.3584 37.655 36.8374 37.5982 38.2876 37.3174C42.1836 36.558 45.1415 34.5055 46.3082 30.5686C47.5885 26.379 46.621 22.6395 43.4927 19.5458Z" fill="#191C4B"/>
<path d="M31.2338 28.826C31.0958 28.8255 30.9591 28.8521 30.8314 28.9041C30.7038 28.9562 30.5878 29.0327 30.49 29.1294C30.3923 29.226 30.3147 29.3408 30.2618 29.4672C30.209 29.5937 30.1818 29.7292 30.1818 29.8661C30.1818 30.1428 30.2927 30.4081 30.49 30.6038C30.6873 30.7995 30.9549 30.9094 31.2339 30.9094C31.5129 30.9094 31.7805 30.7995 31.9778 30.6038C32.1751 30.4081 32.286 30.1428 32.286 29.8661C32.2861 29.7292 32.259 29.5936 32.2062 29.4671C32.1533 29.3406 32.0758 29.2257 31.978 29.1291C31.8802 29.0324 31.7641 28.9559 31.6364 28.9038C31.5087 28.8518 31.3719 28.8254 31.2338 28.826Z" fill="#191C4B"/>
</svg>
